<svg width="24" height="24" viewBox="0 0 24 24" fill="none" xmlns="http://www.w3.org/2000/svg">
<g clip-path="url(#clip0_9316_24753)">
<path d="M11.8846 16.7575C14.5737 16.7575 16.7536 14.5776 16.7536 11.8885C16.7536 9.19946 14.5737 7.01953 11.8846 7.01953C9.19555 7.01953 7.01562 9.19946 7.01562 11.8885C7.01562 14.5776 9.19555 16.7575 11.8846 16.7575Z" fill="white"/>
<path d="M12.4531 5.14527C12.4681 5.07327 12.4891 5.00727 12.5221 4.94727L12.4531 5.14527Z" fill="white"/>
<path d="M13.9453 5.44193L13.9573 5.23193C13.9633 5.30093 13.9573 5.36993 13.9453 5.44193Z" fill="white"/>
<path d="M13.9438 5.442C13.8628 5.856 13.4608 6.123 13.0498 6.039C12.6388 5.955 12.3688 5.556 12.4528 5.145L12.5218 4.947L14.2528 0L13.9588 5.232L13.9468 5.442H13.9438Z" fill="white"/>
<path d="M11.3204 5.145C11.4014 5.559 11.1344 5.958 10.7234 6.039C10.3124 6.12 9.91044 5.853 9.82944 5.442L9.81744 5.232L9.52344 0L11.2544 4.947L11.3234 5.145H11.3204Z" fill="white"/>
<path d="M8.78625 5.87701C9.02025 6.22801 8.92725 6.69901 8.57625 6.93301C8.22525 7.16701 7.75425 7.07401 7.52025 6.72301L7.43025 6.53401L5.15625 1.81201L8.64825 5.72101L8.78625 5.87701Z" fill="white"/>
<path d="M6.7235 7.52123C7.0745 7.75523 7.1675 8.22623 6.9335 8.57723C6.6995 8.92823 6.2285 9.02123 5.8775 8.78723L5.7215 8.64923L1.8125 5.15723L6.5345 7.43123L6.7235 7.52123Z" fill="white"/>
<path d="M5.442 9.83097C5.856 9.91197 6.123 10.314 6.039 10.725C5.955 11.136 5.556 11.406 5.145 11.322L4.947 11.253L0 9.52197L5.232 9.81597L5.442 9.82797V9.83097Z" fill="white"/>
<path d="M5.145 12.4559C5.559 12.3749 5.958 12.6419 6.039 13.0529C6.12 13.4639 5.853 13.8659 5.442 13.9469L5.232 13.9589L0 14.2529L4.947 12.5219L5.145 12.4529V12.4559Z" fill="white"/>
<path d="M5.8775 14.9942C6.2285 14.7602 6.6995 14.8532 6.9335 15.2042C7.1675 15.5552 7.0745 16.0262 6.7235 16.2602L6.5345 16.3502L1.8125 18.6242L5.7215 15.1322L5.8775 14.9942Z" fill="white"/>
<path d="M7.52025 17.0582C7.75425 16.7072 8.22525 16.6142 8.57625 16.8482C8.92725 17.0822 9.02025 17.5532 8.78625 17.9042L8.64825 18.0602L5.15625 21.9692L7.43025 17.2472L7.52025 17.0582Z" fill="white"/>
<path d="M9.83244 18.3361C9.91344 17.9221 10.3154 17.6551 10.7264 17.7391C11.1374 17.8231 11.4074 18.2221 11.3234 18.6331L11.2544 18.8311L9.52344 23.7781L9.81744 18.5461L9.82944 18.3361H9.83244Z" fill="white"/>
<path d="M12.452 18.6331C12.371 18.2191 12.638 17.8201 13.049 17.7391C13.46 17.6581 13.862 17.9251 13.943 18.3361L13.955 18.5461L14.249 23.7781L12.518 18.8311L12.449 18.6331H12.452Z" fill="white"/>
<path d="M14.9961 17.9013C14.7621 17.5503 14.8551 17.0792 15.2061 16.8452C15.5571 16.6112 16.0281 16.7043 16.2621 17.0553L16.3521 17.2443L18.6261 21.9663L15.1341 18.0573L14.9961 17.9013Z" fill="white"/>
<path d="M17.0577 16.2568C16.7067 16.0228 16.6137 15.5518 16.8477 15.2008C17.0817 14.8498 17.5527 14.7568 17.9037 14.9908L18.0597 15.1288L21.9687 18.6208L17.2467 16.3468L17.0577 16.2568Z" fill="white"/>
<path d="M18.339 13.9472C17.925 13.8662 17.658 13.4642 17.742 13.0532C17.826 12.6422 18.225 12.3722 18.636 12.4562L18.834 12.5252L23.781 14.2562L18.549 13.9622L18.339 13.9502V13.9472Z" fill="white"/>
<path d="M18.635 11.3219C18.221 11.4029 17.822 11.1359 17.741 10.7249C17.66 10.3139 17.927 9.9119 18.338 9.8309L18.548 9.8189L23.78 9.5249L18.833 11.2559L18.635 11.3249V11.3219Z" fill="white"/>
<path d="M17.9037 8.78381C17.5527 9.01781 17.0817 8.92481 16.8477 8.57381C16.6137 8.22281 16.7067 7.75181 17.0577 7.51781L17.2467 7.42781L21.9687 5.15381L18.0597 8.64581L17.9037 8.78381Z" fill="white"/>
<path d="M16.2543 6.71959C16.0203 7.07059 15.5493 7.16359 15.1983 6.92959C14.8473 6.69559 14.7543 6.22459 14.9883 5.87359L15.1263 5.71759L18.6183 1.80859L16.3443 6.53059L16.2543 6.71959Z" fill="white"/>
</g>
<defs>
<clipPath id="clip0_9316_24753">
<rect width="24" height="24" fill="white"/>
</clipPath>
</defs>
</svg>
