<svg width="20" height="20" viewBox="0 0 20 20" fill="none" xmlns="http://www.w3.org/2000/svg">
<path d="M16.0677 15.8079C16.1257 15.8659 16.1718 15.9349 16.2032 16.0107C16.2347 16.0866 16.2508 16.1679 16.2508 16.25C16.2508 16.3322 16.2347 16.4135 16.2032 16.4894C16.1718 16.5652 16.1257 16.6342 16.0677 16.6922C16.0096 16.7503 15.9407 16.7964 15.8648 16.8278C15.7889 16.8592 15.7076 16.8754 15.6255 16.8754C15.5434 16.8754 15.4621 16.8592 15.3862 16.8278C15.3103 16.7964 15.2414 16.7503 15.1833 16.6922L8.9333 10.4422C8.87519 10.3842 8.82909 10.3153 8.79764 10.2394C8.76619 10.1635 8.75 10.0822 8.75 10C8.75 9.91791 8.76619 9.83658 8.79764 9.7607C8.82909 9.68483 8.87519 9.6159 8.9333 9.55785L15.1833 3.30785C15.3006 3.19058 15.4596 3.12469 15.6255 3.12469C15.7913 3.12469 15.9504 3.19058 16.0677 3.30785C16.185 3.42513 16.2508 3.58419 16.2508 3.75004C16.2508 3.91589 16.185 4.07495 16.0677 4.19223L10.2591 10L16.0677 15.8079ZM4.00909 10L9.81768 4.19223C9.93495 4.07495 10.0008 3.91589 10.0008 3.75004C10.0008 3.58419 9.93495 3.42513 9.81768 3.30785C9.7004 3.19058 9.54134 3.12469 9.37549 3.12469C9.20964 3.12469 9.05058 3.19058 8.9333 3.30785L2.6833 9.55785C2.62519 9.6159 2.57909 9.68483 2.54764 9.7607C2.51619 9.83658 2.5 9.91791 2.5 10C2.5 10.0822 2.51619 10.1635 2.54764 10.2394C2.57909 10.3153 2.62519 10.3842 2.6833 10.4422L8.9333 16.6922C8.99137 16.7503 9.06031 16.7964 9.13618 16.8278C9.21205 16.8592 9.29337 16.8754 9.37549 16.8754C9.45761 16.8754 9.53893 16.8592 9.6148 16.8278C9.69067 16.7964 9.75961 16.7503 9.81768 16.6922C9.87575 16.6342 9.92181 16.5652 9.95324 16.4894C9.98466 16.4135 10.0008 16.3322 10.0008 16.25C10.0008 16.1679 9.98466 16.0866 9.95324 16.0107C9.92181 15.9349 9.87575 15.8659 9.81768 15.8079L4.00909 10Z" fill="#484B48"/>
</svg>
