<svg width="20" height="20" viewBox="0 0 20 20" fill="none" xmlns="http://www.w3.org/2000/svg">
<path d="M18.6914 7.60063C18.6157 7.36733 18.4731 7.16146 18.2812 7.00865C18.0894 6.85584 17.8568 6.76285 17.6125 6.74125L12.9727 6.34125L11.1539 2.01625C11.0592 1.78931 10.8995 1.59546 10.6949 1.45911C10.4902 1.32276 10.2498 1.25 10.0039 1.25C9.75802 1.25 9.51761 1.32276 9.31298 1.45911C9.10834 1.59546 8.94862 1.78931 8.85392 2.01625L7.04064 6.34125L2.39533 6.74359C2.15005 6.76421 1.91631 6.85678 1.72342 7.0097C1.53054 7.16262 1.3871 7.36909 1.31109 7.60321C1.23508 7.83733 1.22988 8.08868 1.29615 8.32574C1.36243 8.5628 1.49721 8.77502 1.68361 8.93578L5.20783 12.0155L4.15158 16.5889C4.09573 16.8282 4.11166 17.0787 4.1974 17.309C4.28313 17.5394 4.43486 17.7393 4.63361 17.8839C4.83236 18.0284 5.06931 18.1112 5.31484 18.1218C5.56037 18.1324 5.80359 18.0704 6.01408 17.9436L9.99846 15.5217L13.9914 17.9436C14.2019 18.0704 14.4451 18.1324 14.6907 18.1218C14.9362 18.1112 15.1731 18.0284 15.3719 17.8839C15.5706 17.7393 15.7224 17.5394 15.8081 17.309C15.8938 17.0787 15.9098 16.8282 15.8539 16.5889L14.7985 12.0108L18.3219 8.93578C18.5083 8.77446 18.6428 8.56164 18.7085 8.32408C18.7743 8.08651 18.7683 7.83481 18.6914 7.60063ZM17.5024 7.99125L13.9789 11.0662C13.8074 11.2154 13.6799 11.4085 13.6099 11.6248C13.54 11.841 13.5304 12.0723 13.582 12.2936L14.6406 16.8748L10.6508 14.453C10.4561 14.3344 10.2326 14.2717 10.0047 14.2717C9.77679 14.2717 9.55327 14.3344 9.35861 14.453L5.37424 16.8748L6.4258 12.2967C6.47748 12.0754 6.46784 11.8442 6.39791 11.6279C6.32798 11.4116 6.20041 11.2185 6.02892 11.0694L2.50392 7.99594C2.50364 7.9936 2.50364 7.99124 2.50392 7.98891L7.14767 7.58734C7.37439 7.56736 7.59136 7.48585 7.77516 7.35162C7.95895 7.21738 8.10262 7.03551 8.19064 6.82563L10.0039 2.50609L11.8164 6.82563C11.9045 7.03551 12.0481 7.21738 12.2319 7.35162C12.4157 7.48585 12.6327 7.56736 12.8594 7.58734L17.5039 7.98891C17.5039 7.98891 17.5039 7.99359 17.5039 7.99438L17.5024 7.99125Z" fill="#2B2B2B"/>
</svg>
