<svg width="24" height="25" viewBox="0 0 24 25" fill="none" xmlns="http://www.w3.org/2000/svg">
<path d="M20.25 3.79785H3.75C3.35218 3.79785 2.97064 3.95589 2.68934 4.23719C2.40804 4.5185 2.25 4.90003 2.25 5.29785V20.2979C2.24991 20.4258 2.28253 20.5516 2.34477 20.6633C2.407 20.7751 2.49678 20.869 2.60558 20.9363C2.71437 21.0036 2.83856 21.0419 2.96633 21.0476C3.09411 21.0534 3.22124 21.0263 3.33563 20.9691L6 19.636L8.66437 20.9691C8.76857 21.0212 8.88348 21.0484 9 21.0484C9.11652 21.0484 9.23143 21.0212 9.33563 20.9691L12 19.636L14.6644 20.9691C14.7686 21.0212 14.8835 21.0484 15 21.0484C15.1165 21.0484 15.2314 21.0212 15.3356 20.9691L18 19.636L20.6644 20.9691C20.7788 21.0263 20.9059 21.0534 21.0337 21.0476C21.1614 21.0419 21.2856 21.0036 21.3944 20.9363C21.5032 20.869 21.593 20.7751 21.6552 20.6633C21.7175 20.5516 21.7501 20.4258 21.75 20.2979V5.29785C21.75 4.90003 21.592 4.5185 21.3107 4.23719C21.0294 3.95589 20.6478 3.79785 20.25 3.79785ZM20.25 19.0847L18.3356 18.1266C18.2314 18.0745 18.1165 18.0473 18 18.0473C17.8835 18.0473 17.7686 18.0745 17.6644 18.1266L15 19.4597L12.3356 18.1266C12.2314 18.0745 12.1165 18.0473 12 18.0473C11.8835 18.0473 11.7686 18.0745 11.6644 18.1266L9 19.4597L6.33563 18.1266C6.23143 18.0745 6.11652 18.0473 6 18.0473C5.88349 18.0473 5.76857 18.0745 5.66438 18.1266L3.75 19.0847V5.29785H20.25V19.0847ZM5.66438 15.7191C5.75251 15.7632 5.84849 15.7896 5.94681 15.7966C6.04513 15.8036 6.14387 15.7912 6.23739 15.76C6.3309 15.7288 6.41735 15.6795 6.4918 15.6149C6.56624 15.5503 6.62722 15.4717 6.67125 15.3835L7.21313 14.2979H10.7869L11.3287 15.3835C11.3728 15.4716 11.4338 15.5502 11.5083 15.6148C11.5827 15.6794 11.6692 15.7287 11.7627 15.7598C11.8562 15.791 11.9549 15.8034 12.0532 15.7964C12.1515 15.7895 12.2475 15.7632 12.3356 15.7191C12.4238 15.675 12.5024 15.614 12.567 15.5396C12.6315 15.4651 12.6808 15.3787 12.712 15.2852C12.7431 15.1917 12.7556 15.093 12.7486 14.9947C12.7416 14.8963 12.7153 14.8004 12.6713 14.7122L9.67125 8.71223C9.60905 8.58742 9.51328 8.48243 9.39471 8.40904C9.27613 8.33565 9.13945 8.29678 9 8.29678C8.86055 8.29678 8.72387 8.33565 8.60529 8.40904C8.48672 8.48243 8.39095 8.58742 8.32875 8.71223L5.32875 14.7122C5.28461 14.8004 5.25828 14.8963 5.25126 14.9947C5.24424 15.093 5.25667 15.1917 5.28784 15.2852C5.31901 15.3788 5.36831 15.4652 5.43292 15.5396C5.49753 15.6141 5.57618 15.6751 5.66438 15.7191ZM9 10.725L10.0369 12.7979H7.96313L9 10.725ZM12.75 12.0479C12.75 11.8489 12.829 11.6582 12.9697 11.5175C13.1103 11.3769 13.3011 11.2979 13.5 11.2979H15V9.79785C15 9.59894 15.079 9.40817 15.2197 9.26752C15.3603 9.12687 15.5511 9.04785 15.75 9.04785C15.9489 9.04785 16.1397 9.12687 16.2803 9.26752C16.421 9.40817 16.5 9.59894 16.5 9.79785V11.2979H18C18.1989 11.2979 18.3897 11.3769 18.5303 11.5175C18.671 11.6582 18.75 11.8489 18.75 12.0479C18.75 12.2468 18.671 12.4375 18.5303 12.5782C18.3897 12.7188 18.1989 12.7979 18 12.7979H16.5V14.2979C16.5 14.4968 16.421 14.6875 16.2803 14.8282C16.1397 14.9688 15.9489 15.0479 15.75 15.0479C15.5511 15.0479 15.3603 14.9688 15.2197 14.8282C15.079 14.6875 15 14.4968 15 14.2979V12.7979H13.5C13.3011 12.7979 13.1103 12.7188 12.9697 12.5782C12.829 12.4375 12.75 12.2468 12.75 12.0479Z" fill="#484B48"/>
</svg>
