<svg width="145" height="41" viewBox="0 0 145 41" fill="none" xmlns="http://www.w3.org/2000/svg">
<g clip-path="url(#clip0_9316_20190)">
<path d="M26.7936 28.8944C26.3235 29.3863 25.8664 29.8652 25.3179 30.4441C25.0872 30.0045 24.8522 29.7041 24.7782 29.3776C24.4735 28.0238 24.1252 26.67 23.9598 25.3075C23.6029 22.3257 23.3547 19.3395 23.0544 16.3533C22.8715 14.5555 22.6582 12.7621 22.4928 10.9643C22.4406 10.3636 22.1533 9.99792 21.6135 9.80639C20.6341 9.4625 19.646 9.14037 18.6578 8.83131C18.5751 8.80519 18.4184 8.90531 18.3575 8.99237C18.2791 9.09249 18.266 9.24485 18.2312 9.34061C19.9985 10.6944 19.7809 12.588 20.0769 14.2726C19.3064 14.5077 18.6186 14.7123 17.9309 14.9212C17.6044 15.0213 17.439 15.252 17.304 15.5654C16.4769 17.533 15.6281 19.4875 14.7793 21.4595C12.6985 21.133 10.7396 21.1417 8.80255 21.4769C6.46932 21.8817 4.32763 22.7088 2.50807 24.1714C0.775561 25.5774 -0.142928 27.4057 0.0181338 29.7346C0.161784 31.8197 1.72017 33.0908 3.77915 32.8862C5.20695 32.7469 6.43015 32.1679 7.55758 31.3887C10.0388 29.6736 11.9628 27.4144 13.7302 25.0115C14.3527 24.167 14.9273 23.2834 15.528 22.4171C16.0547 22.5738 16.6249 22.6783 16.8426 23.2529C17.1081 23.9407 16.7773 24.4587 16.3246 24.8418C17.1038 25.3511 17.8612 25.843 18.5838 26.3131C19.1541 25.5557 19.7417 24.7721 20.1988 24.1627C19.7765 23.6926 19.3761 23.2224 18.9495 22.7784C18.4924 22.2996 17.9396 21.9992 17.2866 21.8948C16.86 21.8295 16.4334 21.7206 15.972 21.6249C16.3028 21.0067 16.6032 20.4365 16.9166 19.8749C17.7132 18.4515 18.5098 17.0237 19.3282 15.6133C19.4979 15.3173 19.7722 15.0823 20.0725 14.7297C20.1248 15.0387 20.164 15.2041 20.1814 15.3696C20.547 18.5516 20.8735 21.7337 21.2914 24.9114C21.5395 26.7963 21.8878 28.6811 22.2882 30.5573C22.4275 31.2015 22.7845 31.8501 23.1719 32.4117C23.5941 33.0255 24.2471 33.082 24.6911 32.5771C25.5965 31.5454 26.441 30.4572 27.3334 29.3646C27.0896 29.1513 26.9373 29.0207 26.798 28.8988L26.7936 28.8944ZM13.4124 23.6186C11.78 26.2086 9.90822 28.5941 7.51405 30.5225C6.45627 31.3713 5.29836 32.0417 3.88798 32.2332C2.42101 32.4291 1.25439 31.7935 0.836504 30.5399C0.588381 29.7999 0.60144 29.0555 0.718972 28.3111C1.06286 26.0911 2.43842 24.6807 4.30152 23.6577C6.74357 22.3126 9.43809 21.8643 12.2763 21.947C12.9205 21.9644 13.5691 22.0428 14.3178 22.095C13.9827 22.6652 13.7084 23.1528 13.4124 23.6186Z" fill="#212121"/>
<path d="M29.9443 20.3496C29.9138 22.5348 29.9051 24.72 29.7963 26.8965C29.7353 28.0936 29.6874 29.3168 29.0824 30.3833C28.9779 30.5661 29.1868 30.7751 29.4132 30.7881C29.6396 30.8012 29.9182 30.8012 30.0879 30.9318C30.5798 31.3105 31.0369 31.7414 31.4939 32.168C31.581 32.2508 31.6071 32.3944 31.6637 32.5076C31.7464 32.6643 31.8291 32.8166 31.9293 32.9951C32.9696 31.7066 33.936 30.5182 34.9154 29.3081C34.7892 29.1993 34.6543 29.0817 34.515 28.9599C34.2146 29.2472 33.9447 29.5214 33.6618 29.7782C33.1655 30.2309 32.8129 30.2222 32.3515 29.6694C32.1513 29.43 31.9989 29.0817 31.9815 28.7814C31.9162 27.5364 31.8727 26.2915 31.8901 25.0508C31.9162 23.1181 31.9684 21.1897 32.0598 19.2657C32.1556 17.2415 32.3558 15.2348 32.9609 13.3194C33.2743 12.3226 33.6835 11.3693 34.5106 10.6945C35.0808 10.2288 35.7599 10.0503 36.5217 10.2331C37.1485 10.3811 37.4271 10.8687 37.1703 11.3997C36.9918 11.7654 37.1224 11.9352 37.5272 12.0788C38.0191 11.3867 38.511 10.7076 38.9812 10.0198C39.3512 9.48005 39.2641 9.18839 38.6764 8.80968C37.7493 8.21331 36.883 8.33085 36.0429 8.82709C34.2538 9.88053 32.6562 11.1603 31.2328 12.6578C30.7931 13.1192 30.4449 13.6503 30.3404 14.3032C30.2055 15.1433 30.0879 15.9878 30.0226 16.8367C30.0226 16.8367 29.9573 19.8838 29.9486 20.3452L29.9443 20.3496Z" fill="#212121"/>
<path d="M78.1175 28.3162C77.6561 28.7907 77.2251 29.2521 76.7724 29.6874C76.385 30.0661 76.0237 30.0574 75.645 29.6134C75.3968 29.3218 75.1661 28.9735 75.0399 28.6209C74.4 26.8797 74.0953 25.095 74.104 23.2928C74.1127 21.1555 74.3782 19.0617 74.8266 17.007C75.1487 15.5314 75.4099 14.0209 76.5722 12.8325C76.385 12.7585 76.2457 12.6975 76.0977 12.6497C75.9802 12.6105 75.8365 12.6192 75.7407 12.5539C74.5262 11.692 73.3161 10.8257 72.1103 9.95078C72.0276 9.88984 71.9754 9.77666 71.9144 9.68525C71.8491 9.58513 71.7838 9.39795 71.7316 9.39795C71.6097 9.39795 71.4399 9.45019 71.3746 9.54595C69.9512 11.6441 68.5147 13.7336 67.1391 15.8622C66.5863 16.7154 66.1684 17.6644 65.6417 18.6568C65.6417 18.4 65.6286 18.239 65.6417 18.0779C65.7505 16.7676 65.6939 15.4574 65.3544 14.1515C64.9452 12.58 64.1704 11.187 62.8993 10.1162C61.959 9.31959 61.5237 9.53725 60.997 10.1554C60.2265 11.0565 59.4822 11.988 58.7639 12.9413C58.1458 13.7727 57.5842 14.6477 56.9748 15.527C56.9356 15.4443 56.9008 15.3964 56.8878 15.3442C56.4481 13.5464 55.3773 12.136 53.9364 10.9781C52.143 9.5416 50.1754 9.44148 48.4516 10.7256C47.1457 11.6963 46.1401 12.9196 45.4219 14.3473C46.2098 13.677 47.2589 12.8368 47.7986 12.6061C47.8117 12.5974 47.8247 12.5931 47.8335 12.5931C49.7488 11.6528 52.1995 12.4581 53.4663 13.9251C54.5328 15.157 55.1553 16.6719 55.3033 18.9441C55.3773 20.2675 55.0943 21.865 54.6198 23.4626C54.4892 23.8848 54.3586 24.4899 54.1062 25.1254C53.993 25.3866 53.8711 25.6435 53.7405 25.8916C52.5304 28.2422 50.6368 30.0487 48.6605 31.7943C48.8085 31.9641 48.9217 32.0903 49.0349 32.2165C49.5224 31.8596 49.9795 31.5113 50.4496 31.1849C50.9459 30.841 51.5074 30.6277 52.1473 30.7365C53.0614 30.8932 54.0017 30.9759 54.8723 31.2937C56.1521 31.7682 57.3797 32.4168 58.6769 33.0131C59.0817 32.3776 59.5475 31.6593 60.0481 30.8758C59.2123 30.5058 58.4331 30.114 57.6278 29.805C55.9997 29.1781 54.3717 28.499 52.7437 28.8952C53.5838 27.6415 54.4631 26.3182 55.3511 25.0079C55.4164 24.9165 55.8866 23.9675 55.8866 23.9675C55.9344 23.8152 55.9606 23.7281 55.9954 23.6454C56.7659 21.7997 57.162 19.8583 57.3361 17.8254C57.5146 15.749 58.6638 14.1471 60.0176 12.6975C60.0524 12.6584 60.1003 12.6323 60.1482 12.6018C60.6967 12.2274 61.3453 12.2622 61.798 12.7977C62.1375 13.1981 62.4248 13.6857 62.5989 14.1732C63.13 15.6707 63.2998 17.2203 63.3085 18.7613C63.3215 20.7376 63.2867 22.7095 63.1822 24.6727C63.0516 27.0713 62.8296 29.4567 62.6468 31.8509C62.6163 32.2296 62.5728 32.6127 62.5249 33.0741C63.1735 32.6475 63.7003 32.1861 64.3227 31.9162C65.2978 31.4983 65.4719 30.8018 65.4241 29.7832C65.2978 27.2497 65.3544 24.7337 65.7288 22.2437C66.286 18.5567 67.9053 15.4835 70.5476 12.9718C70.6042 12.9152 70.6738 12.8804 70.7217 12.8455C71.5618 13.3418 72.3758 13.8206 73.1724 14.2908C73.1724 14.3386 73.1768 14.3517 73.1724 14.3648C73.1202 14.5215 73.068 14.6782 73.0157 14.8392C71.8274 18.4435 71.1309 22.148 71.6228 26.0701C71.8796 28.1073 72.489 30.04 73.882 31.6898C74.252 32.1251 74.6917 32.5038 75.1139 32.9261C76.2805 31.446 77.3905 30.0444 78.5093 28.6209C78.3482 28.499 78.2176 28.3946 78.1175 28.3162Z" fill="#212121"/>
<path d="M109.768 39.9995C109.495 39.5758 109.512 39.2247 109.82 38.9461C111.008 37.8578 111.478 36.3952 111.744 34.8325C112.079 32.878 111.892 30.8712 111.94 28.8906C112.009 25.948 112.114 23.0097 112.51 20.1105C112.545 19.8624 112.51 19.7231 112.262 19.6012C111.77 19.3618 111.287 19.0876 110.769 18.809C109.546 20.4675 108.231 22.052 107.582 24.0326C107.339 24.7726 107.413 25.6389 107.378 26.4486C107.339 27.293 107.334 28.1375 107.33 28.982C107.33 29.1736 107.347 29.3825 107.417 29.5653C107.639 30.1747 108.092 30.314 108.588 29.9092C108.688 29.9963 108.788 30.0877 108.893 30.1791C108.148 31.0628 107.417 31.9247 106.625 32.8649C106.555 32.7343 106.468 32.5646 106.368 32.4035C106.316 32.3208 106.25 32.2381 106.172 32.1728C105.841 31.8811 105.519 31.5808 105.166 31.3196C105.014 31.2064 104.801 31.1847 104.596 31.1716C104.309 31.0454 104.396 30.8886 104.479 30.6318C104.705 29.9397 104.923 29.2301 105.001 28.5032C105.314 25.591 105.458 22.6571 105.367 19.697C105.358 19.3923 105.415 17.1026 105.41 16.4888C105.41 15.8707 105.449 15.2526 105.536 14.6475C105.658 13.7508 106.068 12.989 106.694 12.3665C108.301 10.7733 110.116 9.46738 112.223 8.5576C112.941 8.24853 113.698 8.16147 114.486 8.52278C115.244 8.87537 115.453 9.37162 115.013 10.0159C114.543 10.6993 113.99 11.3261 113.446 12.0183C113.254 11.8311 113.132 11.7092 112.998 11.5786C113.063 11.4524 113.119 11.3435 113.176 11.2391C113.472 10.6862 113.176 10.0507 112.527 9.94186C112.21 9.88963 111.857 9.88092 111.565 9.97233C109.454 10.6209 108.092 11.9617 107.896 14.2557C107.73 16.2102 107.648 18.1778 107.53 20.141C107.495 20.7591 107.46 21.3729 107.426 22.0172C108.914 20.0496 110.39 18.0994 111.866 16.1449C111.922 16.1449 111.979 16.1449 112.031 16.1449C112.105 16.2886 112.162 16.4409 112.253 16.5802C112.31 16.6716 112.401 16.7544 112.493 16.8109C113.259 17.2898 114.025 17.7773 114.804 18.23C114.996 18.3432 115.252 18.3389 115.561 18.4042C115.561 18.5086 115.614 18.7176 115.535 18.8003C114.939 19.4097 114.791 20.2194 114.734 21.0203C114.595 22.9487 114.521 24.8902 114.451 26.8316C114.386 28.7034 114.438 30.5883 114.29 32.447C114.112 34.6975 113.354 36.7348 111.931 38.4455C111.356 39.1376 110.647 39.6687 109.768 39.9995Z" fill="#212121"/>
<path d="M102.83 18.4436C102.439 18.3696 102.038 18.3261 101.655 18.1998C100.436 17.8037 99.3219 17.1812 98.2772 16.2148C96.9887 17.5773 95.6523 18.8789 94.4596 20.298C93.6368 21.2731 92.9273 22.37 92.3048 23.4931C91.4037 25.1211 91.6127 26.8493 92.505 28.5644C93.2146 29.94 94.2506 31.0369 95.3693 31.864C95.4782 32.1731 95.5478 32.3646 95.6479 32.6475C97.0583 31.1675 98.5775 29.9791 99.4742 28.2118C99.5091 28.7385 99.5787 29.2173 99.57 29.6875C99.5395 31.0674 99.57 32.456 99.4089 33.8098C99.1608 35.9732 97.9942 37.0659 95.9091 37.2269C94.8209 37.3096 93.75 37.1442 92.7619 36.5348C91.5126 35.7643 91.1512 34.4323 91.8608 33.2657C91.8913 33.2178 91.9043 33.1699 91.9435 33.0785C91.8303 32.9697 91.7171 32.8608 91.5561 32.7085C90.8161 33.8577 90.0412 34.8763 89.7104 36.1517C89.5406 36.7916 89.7713 37.3532 90.3851 37.6709C90.7856 37.8799 91.2427 38.0279 91.6823 38.1106C92.9055 38.3369 94.12 38.2934 95.3258 38.128C97.0888 37.8886 98.7168 37.3314 100.127 36.3041C101.298 35.4465 101.955 34.2843 101.934 32.7651C101.903 30.6713 101.803 28.5731 101.851 26.4923C101.89 24.7076 102.06 22.9359 102.243 21.1686C102.33 20.3502 102.534 19.5493 103.092 18.9094C103.253 18.7222 103.118 18.5002 102.83 18.4436ZM99.5482 25.169C99.3393 26.2268 99.052 27.2672 98.7865 28.3119C98.7386 28.4947 98.6254 28.6602 98.5253 28.8212C97.8897 29.8572 96.8711 30.0052 95.9875 29.0563C94.5901 27.5632 93.7326 25.8133 93.6673 23.7891C93.6586 23.5671 93.7152 23.3408 93.7761 23.1318C94.1897 21.7127 94.9036 20.4721 95.8917 19.4056C96.4054 18.8571 97.0409 18.6787 97.8027 19.0182C98.7429 19.4317 99.6788 19.8409 100.628 20.2545C99.9966 21.852 99.8747 23.5366 99.5482 25.169Z" fill="#212121"/>
<path d="M143.904 20.5153C143.46 19.5881 142.69 18.9178 141.967 18.2126C141.571 17.8295 141.171 17.429 140.844 16.9894C140.5 16.5192 140.426 16.4713 140.043 16.8718C138.85 18.1342 137.666 19.4053 136.474 20.672C136.413 20.7373 136.339 20.7939 136.23 20.8897C136.278 19.9277 136.295 19.0266 136.373 18.1342C136.495 16.7848 136.569 15.4179 136.826 14.0989C137.14 12.4709 137.997 11.1607 139.447 10.3205C139.952 10.0245 140.504 9.90698 141.11 10.0811C141.893 10.3031 142.211 10.7732 142.05 11.5002C141.985 11.7875 142.128 11.8876 142.381 11.9834C142.842 11.3217 143.303 10.6601 143.769 10.0027C144.091 9.54568 144.048 9.29756 143.586 8.89708C142.951 8.3486 142.272 8.29636 141.545 8.54448C139.86 9.11473 138.485 10.1551 137.083 11.165C135.259 12.4883 134.223 14.2382 134.375 16.6194C134.419 17.3333 134.249 22.287 134.158 23.9934C134.062 25.7041 133.966 27.4105 133.344 29.0734C133.531 29.1387 133.701 29.2214 133.884 29.2562C134.058 29.2954 134.267 29.2344 134.423 29.3041C135.882 29.957 137.092 30.9757 138.237 32.0726C138.319 32.1466 138.306 32.3164 138.363 32.5427C138.515 32.7082 138.685 32.7343 138.903 32.5036C139.986 31.3457 141.11 30.2182 142.189 29.0516C143.108 28.0548 143.782 26.8882 144.161 25.5648C144.64 23.8976 144.723 22.2086 143.904 20.5153ZM142.42 27.3583C142.18 27.9198 141.828 28.4552 141.423 28.8993C140.705 29.6959 139.717 29.8221 138.737 29.2431C138.054 28.8383 137.423 28.3203 136.813 27.8023C136.234 27.3104 135.999 26.6705 136.043 25.9218C136.095 24.9511 136.064 23.976 136.13 23.0096C136.151 22.6439 136.286 22.2696 136.456 21.9562C136.713 21.486 137.026 21.0507 137.357 20.6328C137.797 20.0931 138.28 19.5881 138.811 18.9918C139.825 19.9668 140.875 20.8418 141.763 21.8604C143.264 23.5886 143.216 25.4908 142.42 27.3583Z" fill="#212121"/>
<path d="M126.14 18.4299L125.601 19.1873L125.501 19.2962C125.048 20.1232 124.647 20.8502 124.238 21.5946C124.073 21.5075 123.912 21.4248 123.725 21.329C123.751 21.2289 123.764 21.1331 123.799 21.0504C124.09 20.2799 123.629 19.4529 122.789 19.3005C122.671 19.2787 122.493 19.405 122.41 19.5138C121.639 20.5498 121.169 21.7382 120.882 23.0093C120.503 24.6591 120.534 26.3742 120.447 28.0675C120.425 28.5463 120.56 28.8815 120.921 29.1819C121.235 29.4387 121.548 29.6999 121.879 29.9741C122.266 29.5127 122.614 29.0948 123.015 28.6203C123.167 28.7858 123.298 28.9338 123.459 29.1122C123.359 29.2428 123.25 29.3821 123.146 29.5171C122.41 30.4704 121.679 31.4281 120.93 32.3727C120.834 32.4902 120.656 32.5816 120.499 32.599C120.425 32.6077 120.316 32.4031 120.229 32.2856C120.042 32.0288 119.907 31.7023 119.672 31.5151C119.071 31.045 118.423 30.6402 117.804 30.1874C117.722 30.1265 117.687 29.9001 117.73 29.8C117.826 29.5737 118.035 29.3952 118.105 29.1645C118.579 27.5016 118.74 25.7735 118.806 24.0279C118.836 23.1704 118.858 22.3085 118.801 21.4509C118.74 20.5716 118.366 19.7968 117.552 19.2178C117.095 19.6792 116.646 20.1363 116.172 20.6195C116.046 20.441 115.941 20.2974 115.828 20.1406C116.986 18.9436 118.14 17.7421 119.311 16.532C119.572 16.6539 119.659 16.828 119.428 17.05C120.381 17.9337 120.764 18.7129 120.991 20.2103C121.844 18.9044 122.689 17.6507 123.803 16.6452C124.591 17.2459 125.357 17.8292 126.14 18.4299Z" fill="#212121"/>
<path d="M132.774 29.2302C132.034 30.3185 131.307 31.3981 130.554 32.5081C129.335 31.5112 127.99 30.6189 127.811 28.9081C127.733 28.1768 127.759 27.4368 127.807 26.7098C127.933 24.8076 128.051 22.8966 128.268 21.0074C128.351 20.3152 128.207 19.8625 127.602 19.4882C127.45 19.3924 127.35 19.2096 127.219 19.0572C126.906 19.314 126.653 19.5186 126.353 19.7624C126.288 19.6666 126.231 19.5796 126.148 19.4577L126.397 19.0442C127.198 18.2258 127.994 17.4118 128.734 16.6587C129.531 17.2551 130.301 17.8253 131.05 18.4173C131.128 18.4783 131.159 18.7786 131.102 18.8178C130.68 19.0964 130.558 19.5491 130.484 19.9931C130.288 21.1293 130.092 22.2741 130.001 23.4277C129.896 24.7249 129.896 26.0395 129.862 27.3497C129.831 28.5251 130.484 29.3042 131.516 29.8963C131.777 29.5698 132.038 29.2433 132.321 28.8864C132.473 28.9995 132.621 29.1127 132.774 29.2215V29.2302Z" fill="#212121"/>
<path d="M90.5731 28.2025C90.1813 28.6639 89.7983 29.0905 89.4413 29.5388C89.2977 29.7217 89.1714 29.7217 88.9842 29.5954C88.4619 29.2428 88.2137 28.7292 88.0657 28.1633C87.6261 26.4917 87.7784 24.8332 87.9439 23.1921C88.1006 21.612 88.427 20.0797 89.4108 18.7651C87.6348 18.5692 86.4464 17.3634 85.1318 16.3143C83.4689 17.7857 81.6537 19.0611 80.2782 20.8067C79.5991 21.6729 79.0376 22.6262 78.8068 23.7319C78.1582 26.8356 79.2073 29.5258 81.4317 31.8938C81.6146 32.0854 81.8453 32.2334 81.5884 32.5642C81.8017 32.5816 81.9889 32.586 82.1064 32.4989C83.4864 31.5195 84.4136 30.1396 85.3233 28.7509C85.4757 28.5202 85.6237 28.2895 85.7761 28.0588C85.8892 29.8305 86.5596 31.3323 87.7828 32.6817C88.8798 31.3149 89.9506 29.9872 91.0258 28.6465C90.8604 28.4854 90.7255 28.3548 90.5731 28.2025ZM85.4409 25.9041C85.3059 26.9053 85.1492 27.8977 84.653 28.7771C84.3613 29.2864 83.9826 29.6781 83.3035 29.6259C82.7333 29.5824 82.2762 29.282 82.0368 28.8075C81.6363 28.0153 81.2576 27.1882 81.0182 26.3437C80.3826 24.115 80.5655 22.0037 81.8757 20.1668C82.2066 19.701 82.6941 19.3397 83.1555 18.9871C83.4211 18.7825 83.7606 18.8086 84.1132 19.0089C84.814 19.418 85.541 19.7837 86.1852 20.1276C85.9284 22.1169 85.6977 24.0148 85.4409 25.9041Z" fill="#212121"/>
<path d="M129.069 15.4615C128.752 15.2786 128.686 15.0392 128.948 14.7432C129.161 14.4994 129.091 14.2513 128.874 14.025C128.538 13.6811 128.19 13.3459 127.898 13.0629C128.517 12.3708 129.152 11.6613 129.801 10.9343C129.757 10.9169 129.788 10.9212 129.809 10.9387C131.451 12.3142 131.49 12.7365 130.327 14.1599C129.949 14.6213 129.492 15.0218 129.065 15.4571L129.069 15.4615Z" fill="#212121"/>
<path d="M42.1353 28.5696C46.0372 28.5696 49.2002 25.4065 49.2002 21.5047C49.2002 17.6028 46.0372 14.4397 42.1353 14.4397C38.2334 14.4397 35.0703 17.6028 35.0703 21.5047C35.0703 25.4065 38.2334 28.5696 42.1353 28.5696Z" fill="#944BF6"/>
<path d="M42.9531 11.719C42.9749 11.6145 43.0054 11.5188 43.0532 11.4317L42.9531 11.719Z" fill="#944BF6"/>
<path d="M45.1172 12.1496L45.1346 11.8449C45.1433 11.945 45.1346 12.0451 45.1172 12.1496Z" fill="#944BF6"/>
<path d="M45.1232 12.1498C45.0057 12.7505 44.4224 13.138 43.826 13.0161C43.2296 12.8942 42.8379 12.3152 42.9597 11.7189L43.0599 11.4316L45.5716 4.25342L45.145 11.8451L45.1275 12.1498H45.1232Z" fill="#944BF6"/>
<path d="M41.3106 11.7189C41.4281 12.3196 41.0407 12.8985 40.4443 13.0161C39.848 13.1336 39.2647 12.7462 39.1471 12.1498L39.1297 11.8451L38.7031 4.25342L41.2148 11.4316L41.3149 11.7189H41.3106Z" fill="#944BF6"/>
<path d="M37.6265 12.7806C37.9661 13.2899 37.8311 13.9734 37.3218 14.3129C36.8125 14.6524 36.1291 14.5175 35.7896 14.0082L35.659 13.7339L32.3594 6.88226L37.4263 12.5543L37.6265 12.7806Z" fill="#944BF6"/>
<path d="M34.6337 15.1663C35.143 15.5058 35.278 16.1892 34.9384 16.6985C34.5989 17.2078 33.9155 17.3428 33.4062 17.0033L33.1798 16.803L27.5078 11.7361L34.3595 15.0357L34.6337 15.1663Z" fill="#944BF6"/>
<path d="M32.7792 18.5184C33.3799 18.636 33.7674 19.2193 33.6455 19.8156C33.5236 20.412 32.9446 20.8038 32.3483 20.6819L32.061 20.5818L24.8828 18.0701L32.4745 18.4967L32.7792 18.5141V18.5184Z" fill="#944BF6"/>
<path d="M32.3483 22.3277C32.949 22.2101 33.5279 22.5975 33.6455 23.1939C33.763 23.7903 33.3756 24.3736 32.7792 24.4911L32.4745 24.5085L24.8828 24.9351L32.061 22.4234L32.3483 22.3233V22.3277Z" fill="#944BF6"/>
<path d="M33.4062 26.0102C33.9155 25.6706 34.5989 25.8056 34.9384 26.3149C35.278 26.8242 35.143 27.5076 34.6337 27.8471L34.3595 27.9777L27.5078 31.2773L33.1798 26.2104L33.4062 26.0102Z" fill="#944BF6"/>
<path d="M35.7974 29.0049C36.1369 28.4956 36.8203 28.3606 37.3296 28.7002C37.8389 29.0397 37.9739 29.7231 37.6344 30.2324L37.4341 30.4588L32.3672 36.1308L35.6668 29.2791L35.7974 29.0049Z" fill="#944BF6"/>
<path d="M39.1437 30.859C39.2612 30.2583 39.8445 29.8709 40.4409 29.9927C41.0372 30.1146 41.429 30.6936 41.3071 31.29L41.207 31.5773L38.6953 38.7554L39.1219 31.1637L39.1393 30.859H39.1437Z" fill="#944BF6"/>
<path d="M42.9585 31.2903C42.841 30.6895 43.2284 30.1106 43.8248 29.9931C44.4211 29.8755 45.0044 30.2629 45.122 30.8593L45.1394 31.164L45.566 38.7557L43.0543 31.5776L42.9542 31.2903H42.9585Z" fill="#944BF6"/>
<path d="M46.6402 30.2282C46.3007 29.7189 46.4356 29.0355 46.9449 28.6959C47.4542 28.3564 48.1377 28.4914 48.4772 29.0007L48.6078 29.2749L51.9074 36.1266L46.8405 30.4546L46.6402 30.2282Z" fill="#944BF6"/>
<path d="M49.6324 27.8429C49.1231 27.5033 48.9882 26.8199 49.3277 26.3106C49.6673 25.8013 50.3507 25.6663 50.86 26.0059L51.0863 26.2061L56.7583 31.273L49.9067 27.9735L49.6324 27.8429Z" fill="#944BF6"/>
<path d="M51.4902 24.4906C50.8895 24.3731 50.5021 23.7898 50.624 23.1934C50.7459 22.5971 51.3248 22.2053 51.9212 22.3272L52.2085 22.4273L59.3866 24.939L51.7949 24.5124L51.4902 24.495V24.4906Z" fill="#944BF6"/>
<path d="M51.9198 20.6818C51.3191 20.7993 50.7401 20.4119 50.6226 19.8156C50.505 19.2192 50.8925 18.6359 51.4888 18.5184L51.7935 18.5009L59.3852 18.0743L52.2071 20.586L51.9198 20.6862V20.6818Z" fill="#944BF6"/>
<path d="M50.86 16.999C50.3507 17.3385 49.6673 17.2036 49.3277 16.6943C48.9882 16.185 49.1231 15.5015 49.6324 15.162L49.9067 15.0314L56.7583 11.7318L51.0863 16.7987L50.86 16.999Z" fill="#944BF6"/>
<path d="M48.4694 14.0039C48.1299 14.5132 47.4464 14.6482 46.9371 14.3086C46.4278 13.9691 46.2929 13.2857 46.6324 12.7763L46.8326 12.55L51.8996 6.87799L48.6 13.7297L48.4694 14.0039Z" fill="#944BF6"/>
</g>
<defs>
<clipPath id="clip0_9316_20190">
<rect width="144.521" height="40.0479" fill="white"/>
</clipPath>
</defs>
</svg>
