<svg width="24" height="25" viewBox="0 0 24 25" fill="none" xmlns="http://www.w3.org/2000/svg">
<path d="M23.6023 8.38597L12.3523 2.38597C12.2438 2.32819 12.1227 2.29797 11.9998 2.29797C11.8768 2.29797 11.7558 2.32819 11.6473 2.38597L0.397266 8.38597C0.27727 8.44992 0.176916 8.54529 0.106941 8.66188C0.036965 8.77846 0 8.91188 0 9.04785C0 9.18382 0.036965 9.31724 0.106941 9.43382C0.176916 9.55041 0.27727 9.64577 0.397266 9.70972L2.99977 11.0982V15.6375C2.99899 16.0059 3.13457 16.3616 3.38039 16.636C4.60852 18.0038 7.36008 20.2978 11.9998 20.2978C13.5382 20.3106 15.065 20.0319 16.4998 19.4766V22.5478C16.4998 22.7468 16.5788 22.9375 16.7194 23.0782C16.8601 23.2188 17.0509 23.2978 17.2498 23.2978C17.4487 23.2978 17.6394 23.2188 17.7801 23.0782C17.9207 22.9375 17.9998 22.7468 17.9998 22.5478V18.7519C18.9778 18.1873 19.8616 17.4734 20.6191 16.636C20.865 16.3616 21.0005 16.0059 20.9998 15.6375V11.0982L23.6023 9.70972C23.7223 9.64577 23.8226 9.55041 23.8926 9.43382C23.9626 9.31724 23.9995 9.18382 23.9995 9.04785C23.9995 8.91188 23.9626 8.77846 23.8926 8.66188C23.8226 8.54529 23.7223 8.44992 23.6023 8.38597ZM11.9998 18.7978C7.9432 18.7978 5.55727 16.816 4.49977 15.6375V11.8978L11.6473 15.7097C11.7558 15.7675 11.8768 15.7977 11.9998 15.7977C12.1227 15.7977 12.2438 15.7675 12.3523 15.7097L16.4998 13.4982V17.8425C15.3185 18.3938 13.8298 18.7978 11.9998 18.7978ZM19.4998 15.6338C19.0502 16.1327 18.5472 16.5807 17.9998 16.9697V12.6975L19.4998 11.8978V15.6338ZM17.6248 11.1985L17.6041 11.1863L12.3541 8.38597C12.179 8.29651 11.9757 8.27943 11.7881 8.33842C11.6004 8.3974 11.4435 8.52774 11.351 8.70134C11.2586 8.87494 11.238 9.07791 11.2938 9.26653C11.3495 9.45514 11.4771 9.61431 11.6491 9.70972L16.031 12.0478L11.9998 14.1975L2.34352 9.04785L11.9998 3.89816L21.656 9.04785L17.6248 11.1985Z" fill="white"/>
</svg>
