<svg width="20" height="20" viewBox="0 0 20 20" fill="none" xmlns="http://www.w3.org/2000/svg">
<path d="M16.1766 6.30238C15.3664 5.49039 14.4035 4.84681 13.3434 4.40875C12.2833 3.97068 11.147 3.74681 10 3.75003H9.96875C5.16172 3.76644 1.25 7.73441 1.25 12.5883V14.375C1.25 14.7066 1.3817 15.0245 1.61612 15.2589C1.85054 15.4933 2.16848 15.625 2.5 15.625H17.5C17.8315 15.625 18.1495 15.4933 18.3839 15.2589C18.6183 15.0245 18.75 14.7066 18.75 14.375V12.5C18.7532 11.348 18.5274 10.2068 18.0856 9.14282C17.6438 8.07884 16.9949 7.11332 16.1766 6.30238ZM17.5 14.375H9.35234L13.6305 8.49222C13.7281 8.35816 13.7684 8.19083 13.7426 8.02703C13.7168 7.86322 13.627 7.71638 13.493 7.61878C13.3589 7.52119 13.1916 7.48085 13.0278 7.50664C12.864 7.53243 12.7171 7.62223 12.6195 7.75628L7.80625 14.375H2.5V12.5883C2.5 12.3477 2.51172 12.1102 2.53359 11.875H4.375C4.54076 11.875 4.69973 11.8092 4.81694 11.692C4.93415 11.5748 5 11.4158 5 11.25C5 11.0843 4.93415 10.9253 4.81694 10.8081C4.69973 10.6909 4.54076 10.625 4.375 10.625H2.75547C3.56172 7.5891 6.19297 5.29378 9.375 5.0266V6.87503C9.375 7.04079 9.44085 7.19977 9.55806 7.31698C9.67527 7.43419 9.83424 7.50003 10 7.50003C10.1658 7.50003 10.3247 7.43419 10.4419 7.31698C10.5592 7.19977 10.625 7.04079 10.625 6.87503V5.02582C12.1755 5.1563 13.6472 5.76511 14.8368 6.76813C16.0264 7.77115 16.8751 9.11885 17.2656 10.625H15.625C15.4592 10.625 15.3003 10.6909 15.1831 10.8081C15.0658 10.9253 15 11.0843 15 11.25C15 11.4158 15.0658 11.5748 15.1831 11.692C15.3003 11.8092 15.4592 11.875 15.625 11.875H17.4742C17.4906 12.0821 17.5 12.2899 17.5 12.5V14.375Z" fill="#944BF6"/>
</svg>
