<svg width="12" height="12" viewBox="0 0 12 12" fill="none" xmlns="http://www.w3.org/2000/svg">
<path d="M10.9945 5.36147L8.88048 7.20647L9.51376 9.95334C9.54727 10.0969 9.53771 10.2472 9.48627 10.3854C9.43483 10.5236 9.34379 10.6436 9.22454 10.7303C9.10529 10.8171 8.96312 10.8667 8.8158 10.8731C8.66848 10.8795 8.52256 10.8423 8.39626 10.7662L6.00048 9.31303L3.60985 10.7662C3.48356 10.8423 3.33763 10.8795 3.19031 10.8731C3.04299 10.8667 2.90082 10.8171 2.78157 10.7303C2.66232 10.6436 2.57129 10.5236 2.51985 10.3854C2.46841 10.2472 2.45884 10.0969 2.49235 9.95334L3.1247 7.20928L1.01017 5.36147C0.898327 5.26501 0.817455 5.13768 0.777693 4.99544C0.737931 4.85321 0.741048 4.7024 0.786654 4.56193C0.832259 4.42145 0.918323 4.29757 1.03405 4.20582C1.14978 4.11407 1.29003 4.05852 1.4372 4.04616L4.22439 3.80475L5.31235 1.20975C5.36917 1.07359 5.465 0.957276 5.58779 0.875465C5.71057 0.793654 5.85481 0.75 6.00235 0.75C6.1499 0.75 6.29414 0.793654 6.41692 0.875465C6.53971 0.957276 6.63554 1.07359 6.69235 1.20975L7.7836 3.80475L10.5699 4.04616C10.717 4.05852 10.8573 4.11407 10.973 4.20582C11.0887 4.29757 11.1748 4.42145 11.2204 4.56193C11.266 4.7024 11.2691 4.85321 11.2294 4.99544C11.1896 5.13768 11.1087 5.26501 10.9969 5.36147H10.9945Z" fill="#944BF6"/>
</svg>
