<svg width="12" height="12" viewBox="0 0 12 12" fill="none" xmlns="http://www.w3.org/2000/svg">
<path d="M10.8252 9.93731C10.1113 8.70309 9.01111 7.81809 7.7272 7.39856C8.36228 7.02049 8.8557 6.44441 9.13168 5.75878C9.40766 5.07314 9.45094 4.31587 9.25489 3.60326C9.05883 2.89064 8.63427 2.26209 8.04641 1.81412C7.45855 1.36615 6.73989 1.12354 6.0008 1.12354C5.26171 1.12354 4.54305 1.36615 3.95519 1.81412C3.36732 2.26209 2.94276 2.89064 2.74671 3.60326C2.55065 4.31587 2.59394 5.07314 2.86992 5.75878C3.1459 6.44441 3.63931 7.02049 4.27439 7.39856C2.99049 7.81762 1.89033 8.70262 1.17642 9.93731C1.15024 9.98 1.13288 10.0275 1.12535 10.077C1.11783 10.1265 1.12029 10.177 1.13261 10.2256C1.14492 10.2741 1.16683 10.3197 1.19704 10.3596C1.22726 10.3996 1.26517 10.433 1.30853 10.4581C1.35189 10.4831 1.39983 10.4992 1.44952 10.5055C1.49921 10.5117 1.54964 10.5079 1.59784 10.4943C1.64604 10.4807 1.69103 10.4576 1.73015 10.4263C1.76928 10.3951 1.80175 10.3563 1.82564 10.3123C2.70877 8.78606 4.2697 7.87481 6.0008 7.87481C7.73189 7.87481 9.29283 8.78606 10.176 10.3123C10.1999 10.3563 10.2323 10.3951 10.2714 10.4263C10.3106 10.4576 10.3556 10.4807 10.4038 10.4943C10.452 10.5079 10.5024 10.5117 10.5521 10.5055C10.6018 10.4992 10.6497 10.4831 10.6931 10.4581C10.7364 10.433 10.7743 10.3996 10.8046 10.3596C10.8348 10.3197 10.8567 10.2741 10.869 10.2256C10.8813 10.177 10.8838 10.1265 10.8762 10.077C10.8687 10.0275 10.8514 9.98 10.8252 9.93731ZM3.3758 4.49981C3.3758 3.98063 3.52975 3.47312 3.81819 3.04144C4.10663 2.60976 4.5166 2.27331 4.99625 2.07463C5.47591 1.87595 6.00371 1.82396 6.51291 1.92525C7.02211 2.02654 7.48984 2.27654 7.85695 2.64365C8.22407 3.01077 8.47407 3.4785 8.57536 3.9877C8.67665 4.4969 8.62466 5.0247 8.42598 5.50435C8.2273 5.98401 7.89085 6.39398 7.45917 6.68242C7.02749 6.97086 6.51997 7.12481 6.0008 7.12481C5.30483 7.12407 4.63759 6.84727 4.14547 6.35514C3.65334 5.86302 3.37654 5.19578 3.3758 4.49981Z" fill="#212121"/>
</svg>
